<?xml version="1.0"?>
<svg xmlns="http://www.w3.org/2000/svg" xmlns:xlink="http://www.w3.org/1999/xlink" xmlns:ev="http://www.w3.org/2001/xml-events" version="1.1" baseProfile="full" viewBox="28.5 28.5 443 1069.67">
	<g>
		<g>
			<polygon points="330 143.333 328.75 138.333 331.25 138.333 " stroke="#000000" stroke-width="1.000000px" fill="#000000" />
			<path fill="none" d=" M330,40 L330,138.333" stroke="#000000" stroke-width="1.000000px" />
		</g>
		<g>
			<polygon points="93.3333 873.333 93.7286 868.195 96.1003 868.985 " stroke="#000000" stroke-width="1.000000px" fill="#000000" />
			<path fill="none" d=" M370,390 L110,496.667 M110,496.667 L110,823.333 M110,823.333 L93.3333,873.333" stroke="#000000" stroke-width="1.000000px" />
		</g>
		<g>
			<polygon points="350 1026.67 352.652 1022.25 354.419 1024.02 " stroke="#000000" stroke-width="1.000000px" fill="#000000" />
			<path fill="none" d=" M370,390 L390,496.667 M390,496.667 L390,986.667 M390,986.667 L350,1026.67" stroke="#000000" stroke-width="1.000000px" />
		</g>
		<g>
			<polygon points="80 717.083 83.5775 713.373 84.9025 715.493 " stroke="#000000" stroke-width="1.000000px" fill="#000000" />
			<path fill="none" d=" M190,596.667 L150,673.333 M150,673.333 L80,717.083" stroke="#000000" stroke-width="1.000000px" />
		</g>
		<g>
			<polygon points="310 668.824 314.044 665.629 315.072 667.907 " stroke="#000000" stroke-width="1.000000px" fill="#000000" />
			<path fill="none" d=" M450,213.333 L470,263.333 M470,263.333 L470,596.667 M470,596.667 L310,668.824" stroke="#000000" stroke-width="1.000000px" />
		</g>
		<g>
			<polygon points="243.333 873.333 239.52 869.866 241.6 868.48 " stroke="#000000" stroke-width="1.000000px" fill="#000000" />
			<path fill="none" d=" M210,823.333 L243.333,873.333" stroke="#000000" stroke-width="1.000000px" />
		</g>
		<g>
			<polygon points="260 767.083 263.577 763.373 264.902 765.493 " stroke="#000000" stroke-width="1.000000px" fill="#000000" />
			<path fill="none" d=" M330,723.333 L260,767.083" stroke="#000000" stroke-width="1.000000px" />
		</g>
		<g>
			<polygon points="218 813.333 220.147 808.648 222.1 810.21 " stroke="#000000" stroke-width="1.000000px" fill="#000000" />
			<path fill="none" d=" M250,773.333 L218,813.333" stroke="#000000" stroke-width="1.000000px" />
		</g>
		<g>
			<polygon points="100 878.333 103.913 874.979 105.031 877.215 " stroke="#000000" stroke-width="1.000000px" fill="#000000" />
			<path fill="none" d=" M210,823.333 L100,878.333" stroke="#000000" stroke-width="1.000000px" />
		</g>
		<g>
			<polygon points="294 683.333 292.499 688.264 290.356 686.978 " stroke="#000000" stroke-width="1.000000px" fill="#000000" />
			<path fill="none" d=" M250,773.333 L270,723.333 M270,723.333 L294,683.333" stroke="#000000" stroke-width="1.000000px" />
		</g>
		<g>
			<polygon points="324 713.333 320.356 709.689 322.499 708.403 " stroke="#000000" stroke-width="1.000000px" fill="#000000" />
			<path fill="none" d=" M300,673.333 L324,713.333" stroke="#000000" stroke-width="1.000000px" />
		</g>
		<g>
			<polygon points="350 976.667 348.75 971.667 351.25 971.667 " stroke="#000000" stroke-width="1.000000px" fill="#000000" />
			<path fill="none" d=" M350,936.667 L350,971.667" stroke="#000000" stroke-width="1.000000px" />
		</g>
		<g>
			<polygon points="200 592.5 204.135 589.423 205.096 591.731 " stroke="#000000" stroke-width="1.000000px" fill="#000000" />
			<path fill="none" d=" M450,213.333 L430,263.333 M430,263.333 L430,496.667 M430,496.667 L200,592.5" stroke="#000000" stroke-width="1.000000px" />
		</g>
		<g>
			<polygon points="70 506.667 68.75 511.667 71.25 511.667 " stroke="#000000" stroke-width="1.000000px" fill="#000000" />
			<path fill="none" d=" M70,673.333 L70,596.667 M70,596.667 L70,511.667" stroke="#000000" stroke-width="1.000000px" />
		</g>
		<g>
			<polygon points="370 380 368.75 375 371.25 375 " stroke="#000000" stroke-width="1.000000px" fill="#000000" />
			<path fill="none" d=" M370,263.333 L370,375" stroke="#000000" stroke-width="1.000000px" />
		</g>
		<g>
			<polygon points="350 1078.33 353.041 1074.17 354.641 1076.09 " stroke="#000000" stroke-width="1.000000px" fill="#000000" />
			<path fill="none" d=" M350,986.667 L400,1036.67 M400,1036.67 L350,1078.33" stroke="#000000" stroke-width="1.000000px" />
		</g>
		<g>
			<polygon points="340 931.333 335 930.083 336.176 927.877 " stroke="#000000" stroke-width="1.000000px" fill="#000000" />
			<path fill="none" d=" M250,883.333 L340,931.333" stroke="#000000" stroke-width="1.000000px" />
		</g>
		<g>
			<polygon points="334 733.333 337.018 737.511 334.696 738.44 " stroke="#000000" stroke-width="1.000000px" fill="#000000" />
			<path fill="none" d=" M350,936.667 L350,883.333 M350,883.333 L350,773.333 M350,773.333 L334,733.333" stroke="#000000" stroke-width="1.000000px" />
		</g>
		<g>
			<polygon points="50 380 48.75 375 51.25 375 " stroke="#000000" stroke-width="1.000000px" fill="#000000" />
			<path fill="none" d=" M330,40 L50,153.333 M50,153.333 L50,263.333 M50,263.333 L50,375" stroke="#000000" stroke-width="1.000000px" />
		</g>
		<g>
			<polygon points="326.667 163.333 326.271 168.472 323.9 167.681 " stroke="#000000" stroke-width="1.000000px" fill="#000000" />
			<path fill="none" d=" M70,496.667 L310,390 M310,390 L310,213.333 M310,213.333 L326.667,163.333" stroke="#000000" stroke-width="1.000000px" />
		</g>
		<g>
			<polygon points="440 208.333 434.969 207.215 436.087 204.979 " stroke="#000000" stroke-width="1.000000px" fill="#000000" />
			<path fill="none" d=" M330,153.333 L440,208.333" stroke="#000000" stroke-width="1.000000px" />
		</g>
		<g>
			<polygon points="374 253.333 374.696 248.227 377.018 249.155 " stroke="#000000" stroke-width="1.000000px" fill="#000000" />
			<path fill="none" d=" M330,40 L390,153.333 M390,153.333 L390,213.333 M390,213.333 L374,253.333" stroke="#000000" stroke-width="1.000000px" />
		</g>
		<g>
			<polygon points="60 386.042 64.189 383.039 65.1091 385.364 " stroke="#000000" stroke-width="1.000000px" fill="#000000" />
			<path fill="none" d=" M370,263.333 L60,386.042" stroke="#000000" stroke-width="1.000000px" />
		</g>
		<g>
			<polygon points="68.125 486.667 65.975 481.983 68.4321 481.522 " stroke="#000000" stroke-width="1.000000px" fill="#000000" />
			<path fill="none" d=" M50,390 L68.125,486.667" stroke="#000000" stroke-width="1.000000px" />
		</g>
		<g>
			<polygon points="80 666.944 83.5405 663.199 84.8865 665.306 " stroke="#000000" stroke-width="1.000000px" fill="#000000" />
			<path fill="none" d=" M190,596.667 L80,666.944" stroke="#000000" stroke-width="1.000000px" />
		</g>
		<g>
			<polygon points="70 713.333 68.75 708.333 71.25 708.333 " stroke="#000000" stroke-width="1.000000px" fill="#000000" />
			<path fill="none" d=" M70,673.333 L70,708.333" stroke="#000000" stroke-width="1.000000px" />
		</g>
		<g>
			<polygon points="86.6667 873.333 83.8997 868.985 86.2714 868.195 " stroke="#000000" stroke-width="1.000000px" fill="#000000" />
			<path fill="none" d=" M70,723.333 L70,773.333 M70,773.333 L70,823.333 M70,823.333 L86.6667,873.333" stroke="#000000" stroke-width="1.000000px" />
		</g>
		<g>
			<polygon points="342 1026.67 341.755 1021.52 344.206 1022.01 " stroke="#000000" stroke-width="1.000000px" fill="#000000" />
			<path fill="none" d=" M350,986.667 L342,1026.67" stroke="#000000" stroke-width="1.000000px" />
		</g>
		<g>
			<polygon points="340 1076.67 338.75 1071.67 341.25 1071.67 " stroke="#000000" stroke-width="1.000000px" fill="#000000" />
			<path fill="none" d=" M340,1036.67 L340,1071.67" stroke="#000000" stroke-width="1.000000px" />
		</g>
		<g>
			<polygon points="250 893.333 248.75 898.333 251.25 898.333 " stroke="#000000" stroke-width="1.000000px" fill="#000000" />
			<path fill="none" d=" M340,1086.67 L250,1036.67 M250,1036.67 L250,936.667 M250,936.667 L250,898.333" stroke="#000000" stroke-width="1.000000px" />
		</g>
		<g>
			<polygon points="246 763.333 242.982 759.155 245.304 758.227 " stroke="#000000" stroke-width="1.000000px" fill="#000000" />
			<path fill="none" d=" M190,596.667 L230,673.333 M230,673.333 L230,723.333 M230,723.333 L246,763.333" stroke="#000000" stroke-width="1.000000px" />
		</g>
		<g>
			<polygon points="380 257.083 383.577 253.373 384.902 255.493 " stroke="#000000" stroke-width="1.000000px" fill="#000000" />
			<path fill="none" d=" M450,213.333 L380,257.083" stroke="#000000" stroke-width="1.000000px" />
		</g>
		<g>
			<polygon points="250 783.333 248.75 788.333 251.25 788.333 " stroke="#000000" stroke-width="1.000000px" fill="#000000" />
			<path fill="none" d=" M250,883.333 L250,823.333 M250,823.333 L250,788.333" stroke="#000000" stroke-width="1.000000px" />
		</g>
		<g>
			<polygon points="206 813.333 202.982 809.155 205.304 808.227 " stroke="#000000" stroke-width="1.000000px" fill="#000000" />
			<path fill="none" d=" M190,596.667 L190,673.333 M190,673.333 L190,773.333 M190,773.333 L206,813.333" stroke="#000000" stroke-width="1.000000px" />
		</g>
		<g>
			<polygon points="326 733.333 325.304 738.44 322.982 737.511 " stroke="#000000" stroke-width="1.000000px" fill="#000000" />
			<path fill="none" d=" M250,883.333 L310,823.333 M310,823.333 L310,773.333 M310,773.333 L326,733.333" stroke="#000000" stroke-width="1.000000px" />
		</g>
		<g>
			<polygon points="257.5 893.333 261.5 896.583 259.5 898.083 " stroke="#000000" stroke-width="1.000000px" fill="#000000" />
			<path fill="none" d=" M340,1036.67 L290,986.667 M290,986.667 L290,936.667 M290,936.667 L257.5,893.333" stroke="#000000" stroke-width="1.000000px" />
		</g>
		<g>
			<polygon points="290 666.364 285.183 664.53 286.613 662.479 " stroke="#000000" stroke-width="1.000000px" fill="#000000" />
			<path fill="none" d=" M190,596.667 L290,666.364" stroke="#000000" stroke-width="1.000000px" />
		</g>
		<g>
			<polygon points="180 588.333 175.359 586.093 176.959 584.172 " stroke="#000000" stroke-width="1.000000px" fill="#000000" />
			<path fill="none" d=" M70,496.667 L180,588.333" stroke="#000000" stroke-width="1.000000px" />
		</g>
		<g>
			<polygon points="48.125 400 48.4321 405.145 45.975 404.684 " stroke="#000000" stroke-width="1.000000px" fill="#000000" />
			<path fill="none" d=" M90,883.333 L30,823.333 M30,823.333 L30,496.667 M30,496.667 L48.125,400" stroke="#000000" stroke-width="1.000000px" />
		</g>
		<g>
			<polygon points="366 253.333 362.982 249.155 365.304 248.227 " stroke="#000000" stroke-width="1.000000px" fill="#000000" />
			<path fill="none" d=" M330,153.333 L350,213.333 M350,213.333 L366,253.333" stroke="#000000" stroke-width="1.000000px" />
		</g>
	</g>
	<g>
		<rect x="320" y="30" width="20" height="20" fill="#FFFFFF" stroke-width="1.000000px" stroke="#000000" />
		<text x="330" y="40" text-anchor="middle" dominant-baseline="middle" font-family="Arial" font-size="10" fill="#000000">N0</text>
	</g>
	<g>
		<rect x="320" y="143.33333333333331" width="20" height="20" fill="#FFFFFF" stroke-width="1.000000px" stroke="#000000" />
		<text x="330" y="153.33333333333331" text-anchor="middle" dominant-baseline="middle" font-family="Arial" font-size="10" fill="#000000">N1</text>
	</g>
	<g>
		<rect x="200" y="813.33333333333337" width="20" height="20" fill="#FFFFFF" stroke-width="1.000000px" stroke="#000000" />
		<text x="210" y="823.33333333333337" text-anchor="middle" dominant-baseline="middle" font-family="Arial" font-size="10" fill="#000000">N2</text>
	</g>
	<g>
		<rect x="340" y="926.66666666666674" width="20" height="20" fill="#FFFFFF" stroke-width="1.000000px" stroke="#000000" />
		<text x="350" y="936.66666666666674" text-anchor="middle" dominant-baseline="middle" font-family="Arial" font-size="10" fill="#000000">N3</text>
	</g>
	<g>
		<rect x="240" y="763.33333333333337" width="20" height="20" fill="#FFFFFF" stroke-width="1.000000px" stroke="#000000" />
		<text x="250" y="773.33333333333337" text-anchor="middle" dominant-baseline="middle" font-family="Arial" font-size="10" fill="#000000">N7</text>
	</g>
	<g>
		<rect x="60" y="713.33333333333337" width="20" height="20" fill="#FFFFFF" stroke-width="1.000000px" stroke="#000000" />
		<text x="70" y="723.33333333333337" text-anchor="middle" dominant-baseline="middle" font-family="Arial" font-size="10" fill="#000000">N8</text>
	</g>
	<g>
		<rect x="290" y="663.33333333333337" width="20" height="20" fill="#FFFFFF" stroke-width="1.000000px" stroke="#000000" />
		<text x="300" y="673.33333333333337" text-anchor="middle" dominant-baseline="middle" font-family="Arial" font-size="10" fill="#000000">N9</text>
	</g>
	<g>
		<rect x="340" y="976.66666666666674" width="20" height="20" fill="#FFFFFF" stroke-width="1.000000px" stroke="#000000" />
		<text x="350" y="986.66666666666674" text-anchor="middle" dominant-baseline="middle" font-family="Arial" font-size="10" fill="#000000">N10</text>
	</g>
	<g>
		<rect x="180" y="586.66666666666674" width="20" height="20" fill="#FFFFFF" stroke-width="1.000000px" stroke="#000000" />
		<text x="190" y="596.66666666666674" text-anchor="middle" dominant-baseline="middle" font-family="Arial" font-size="10" fill="#000000">N11</text>
	</g>
	<g>
		<rect x="360" y="380" width="20" height="20" fill="#FFFFFF" stroke-width="1.000000px" stroke="#000000" />
		<text x="370" y="390" text-anchor="middle" dominant-baseline="middle" font-family="Arial" font-size="10" fill="#000000">N12</text>
	</g>
	<g>
		<rect x="330" y="1076.6666666666667" width="20" height="20" fill="#FFFFFF" stroke-width="1.000000px" stroke="#000000" />
		<text x="340" y="1086.6666666666667" text-anchor="middle" dominant-baseline="middle" font-family="Arial" font-size="10" fill="#000000">N13</text>
	</g>
	<g>
		<rect x="320" y="713.33333333333337" width="20" height="20" fill="#FFFFFF" stroke-width="1.000000px" stroke="#000000" />
		<text x="330" y="723.33333333333337" text-anchor="middle" dominant-baseline="middle" font-family="Arial" font-size="10" fill="#000000">N14</text>
	</g>
	<g>
		<rect x="40" y="380" width="20" height="20" fill="#FFFFFF" stroke-width="1.000000px" stroke="#000000" />
		<text x="50" y="390" text-anchor="middle" dominant-baseline="middle" font-family="Arial" font-size="10" fill="#000000">N15</text>
	</g>
	<g>
		<rect x="440" y="203.33333333333331" width="20" height="20" fill="#FFFFFF" stroke-width="1.000000px" stroke="#000000" />
		<text x="450" y="213.33333333333331" text-anchor="middle" dominant-baseline="middle" font-family="Arial" font-size="10" fill="#000000">N16</text>
	</g>
	<g>
		<rect x="360" y="253.33333333333331" width="20" height="20" fill="#FFFFFF" stroke-width="1.000000px" stroke="#000000" />
		<text x="370" y="263.33333333333331" text-anchor="middle" dominant-baseline="middle" font-family="Arial" font-size="10" fill="#000000">N17</text>
	</g>
	<g>
		<rect x="60" y="486.66666666666669" width="20" height="20" fill="#FFFFFF" stroke-width="1.000000px" stroke="#000000" />
		<text x="70" y="496.66666666666669" text-anchor="middle" dominant-baseline="middle" font-family="Arial" font-size="10" fill="#000000">N18</text>
	</g>
	<g>
		<rect x="60" y="663.33333333333337" width="20" height="20" fill="#FFFFFF" stroke-width="1.000000px" stroke="#000000" />
		<text x="70" y="673.33333333333337" text-anchor="middle" dominant-baseline="middle" font-family="Arial" font-size="10" fill="#000000">N19</text>
	</g>
	<g>
		<rect x="80" y="873.33333333333337" width="20" height="20" fill="#FFFFFF" stroke-width="1.000000px" stroke="#000000" />
		<text x="90" y="883.33333333333337" text-anchor="middle" dominant-baseline="middle" font-family="Arial" font-size="10" fill="#000000">N20</text>
	</g>
	<g>
		<rect x="330" y="1026.6666666666667" width="20" height="20" fill="#FFFFFF" stroke-width="1.000000px" stroke="#000000" />
		<text x="340" y="1036.6666666666667" text-anchor="middle" dominant-baseline="middle" font-family="Arial" font-size="10" fill="#000000">N21</text>
	</g>
	<g>
		<rect x="240" y="873.33333333333337" width="20" height="20" fill="#FFFFFF" stroke-width="1.000000px" stroke="#000000" />
		<text x="250" y="883.33333333333337" text-anchor="middle" dominant-baseline="middle" font-family="Arial" font-size="10" fill="#000000">N22</text>
	</g>
</svg>
