<?xml version="1.0"?>
<svg xmlns="http://www.w3.org/2000/svg" xmlns:xlink="http://www.w3.org/1999/xlink" xmlns:ev="http://www.w3.org/2001/xml-events" version="1.1" baseProfile="full" viewBox="28.5 28.5 413 924.667">
	<g>
		<g>
			<polygon points="226,80,227.501,75.0694,229.644,76.3557," stroke="#000000" stroke-width="1.000000px" />
			<path fill="none" d=" M250,40 L226,80" stroke="#000000" stroke-width="1.000000px" />
		</g>
		<g>
			<polygon points="290,618.75,293.577,615.04,294.902,617.16," stroke="#000000" stroke-width="1.000000px" />
			<path fill="none" d=" M380,261.667 L360,311.667 M360,311.667 L360,575 M360,575 L290,618.75" stroke="#000000" stroke-width="1.000000px" />
		</g>
		<g>
			<polygon points="250,850.417,254.025,847.197,255.066,849.47," stroke="#000000" stroke-width="1.000000px" />
			<path fill="none" d=" M380,261.667 L400,311.667 M400,311.667 L400,781.667 M400,781.667 L250,850.417" stroke="#000000" stroke-width="1.000000px" />
		</g>
		<g>
			<polygon points="236,455,232.982,450.822,235.304,449.893," stroke="#000000" stroke-width="1.000000px" />
			<path fill="none" d=" M220,361.667 L220,415 M220,415 L236,455" stroke="#000000" stroke-width="1.000000px" />
		</g>
		<g>
			<polygon points="40,565,38.75,560,41.25,560," stroke="#000000" stroke-width="1.000000px" />
			<path fill="none" d=" M180,140 L40,211.667 M40,211.667 L40,515 M40,515 L40,560" stroke="#000000" stroke-width="1.000000px" />
		</g>
		<g>
			<polygon points="184,615,184.696,609.893,187.018,610.822," stroke="#000000" stroke-width="1.000000px" />
			<path fill="none" d=" M200,575 L184,615" stroke="#000000" stroke-width="1.000000px" />
		</g>
		<g>
			<polygon points="150,522.5,146.75,526.5,145.25,524.5," stroke="#000000" stroke-width="1.000000px" />
			<path fill="none" d=" M80,781.667 L80,731.667 M80,731.667 L80,575 M80,575 L150,522.5" stroke="#000000" stroke-width="1.000000px" />
		</g>
		<g>
			<polygon points="190,560,186.186,556.533,188.267,555.146," stroke="#000000" stroke-width="1.000000px" />
			<path fill="none" d=" M160,515 L190,560" stroke="#000000" stroke-width="1.000000px" />
		</g>
		<g>
			<polygon points="270,618.75,265.098,617.16,266.423,615.04," stroke="#000000" stroke-width="1.000000px" />
			<path fill="none" d=" M200,575 L270,618.75" stroke="#000000" stroke-width="1.000000px" />
		</g>
		<g>
			<polygon points="50,570,53.9131,566.646,55.0312,568.882," stroke="#000000" stroke-width="1.000000px" />
			<path fill="none" d=" M160,515 L50,570" stroke="#000000" stroke-width="1.000000px" />
		</g>
		<g>
			<polygon points="70,769.167,65.9004,766.043,67.8526,764.481," stroke="#000000" stroke-width="1.000000px" />
			<path fill="none" d=" M40,575 L40,625 M40,625 L40,731.667 M40,731.667 L70,769.167" stroke="#000000" stroke-width="1.000000px" />
		</g>
		<g>
			<polygon points="150,771.667,148.75,766.667,151.25,766.667," stroke="#000000" stroke-width="1.000000px" />
			<path fill="none" d=" M150,731.667 L150,766.667" stroke="#000000" stroke-width="1.000000px" />
		</g>
		<g>
			<polygon points="216,351.667,212.982,347.489,215.304,346.56," stroke="#000000" stroke-width="1.000000px" />
			<path fill="none" d=" M180,140 L200,211.667 M200,211.667 L200,311.667 M200,311.667 L216,351.667" stroke="#000000" stroke-width="1.000000px" />
		</g>
		<g>
			<polygon points="264,321.667,267.018,325.845,264.696,326.773," stroke="#000000" stroke-width="1.000000px" />
			<path fill="none" d=" M260,415 L280,361.667 M280,361.667 L264,321.667" stroke="#000000" stroke-width="1.000000px" />
		</g>
		<g>
			<polygon points="370,250.556,365.726,247.675,367.584,246.003," stroke="#000000" stroke-width="1.000000px" />
			<path fill="none" d=" M335,211.667 L370,250.556" stroke="#000000" stroke-width="1.000000px" />
		</g>
		<g>
			<polygon points="230,932.037,225.531,929.469,227.265,927.668," stroke="#000000" stroke-width="1.000000px" />
			<path fill="none" d=" M150,781.667 L150,855 M150,855 L230,932.037" stroke="#000000" stroke-width="1.000000px" />
		</g>
		<g>
			<polygon points="152.812,721.667,152.963,716.515,155.37,717.192," stroke="#000000" stroke-width="1.000000px" />
			<path fill="none" d=" M180,625 L152.812,721.667" stroke="#000000" stroke-width="1.000000px" />
		</g>
		<g>
			<polygon points="90,774.524,93.3421,770.6,94.7952,772.635," stroke="#000000" stroke-width="1.000000px" />
			<path fill="none" d=" M150,731.667 L90,774.524" stroke="#000000" stroke-width="1.000000px" />
		</g>
		<g>
			<polygon points="290,251.667,288.75,246.667,291.25,246.667," stroke="#000000" stroke-width="1.000000px" />
			<path fill="none" d=" M250,40 L290,90 M290,90 L290,211.667 M290,211.667 L290,246.667" stroke="#000000" stroke-width="1.000000px" />
		</g>
		<g>
			<polygon points="224,100,227.018,104.178,224.696,105.107," stroke="#000000" stroke-width="1.000000px" />
			<path fill="none" d=" M260,311.667 L240,261.667 M240,261.667 L240,140 M240,140 L224,100" stroke="#000000" stroke-width="1.000000px" />
		</g>
		<g>
			<polygon points="190,127.5,192.147,122.815,194.1,124.377," stroke="#000000" stroke-width="1.000000px" />
			<path fill="none" d=" M220,90 L190,127.5" stroke="#000000" stroke-width="1.000000px" />
		</g>
		<g>
			<polygon points="335,201.667,333.75,196.667,336.25,196.667," stroke="#000000" stroke-width="1.000000px" />
			<path fill="none" d=" M250,40 L335,90 M335,90 L335,140 M335,140 L335,196.667" stroke="#000000" stroke-width="1.000000px" />
		</g>
		<g>
			<polygon points="300,250.556,302.416,246.003,304.274,247.675," stroke="#000000" stroke-width="1.000000px" />
			<path fill="none" d=" M335,211.667 L300,250.556" stroke="#000000" stroke-width="1.000000px" />
		</g>
		<g>
			<polygon points="266,301.667,267.501,296.736,269.644,298.022," stroke="#000000" stroke-width="1.000000px" />
			<path fill="none" d=" M290,261.667 L266,301.667" stroke="#000000" stroke-width="1.000000px" />
		</g>
		<g>
			<polygon points="250,401.667,246,398.417,248,396.917," stroke="#000000" stroke-width="1.000000px" />
			<path fill="none" d=" M220,361.667 L250,401.667" stroke="#000000" stroke-width="1.000000px" />
		</g>
		<g>
			<polygon points="244,455,244.696,449.893,247.018,450.822," stroke="#000000" stroke-width="1.000000px" />
			<path fill="none" d=" M260,415 L244,455" stroke="#000000" stroke-width="1.000000px" />
		</g>
		<g>
			<polygon points="270,612.5,265.9,609.377,267.853,607.815," stroke="#000000" stroke-width="1.000000px" />
			<path fill="none" d=" M240,465 L240,515 M240,515 L240,575 M240,575 L270,612.5" stroke="#000000" stroke-width="1.000000px" />
		</g>
		<g>
			<polygon points="230,846.852,225.334,844.663,226.913,842.724," stroke="#000000" stroke-width="1.000000px" />
			<path fill="none" d=" M150,781.667 L230,846.852" stroke="#000000" stroke-width="1.000000px" />
		</g>
		<g>
			<polygon points="240,931.667,238.75,926.667,241.25,926.667," stroke="#000000" stroke-width="1.000000px" />
			<path fill="none" d=" M240,855 L240,926.667" stroke="#000000" stroke-width="1.000000px" />
		</g>
		<g>
			<polygon points="190,629.103,195.1,629.844,194.151,632.157," stroke="#000000" stroke-width="1.000000px" />
			<path fill="none" d=" M240,941.667 L440,855 M440,855 L440,731.667 M440,731.667 L190,629.103" stroke="#000000" stroke-width="1.000000px" />
		</g>
		<g>
			<polygon points="150,502.5,145.9,499.377,147.853,497.815," stroke="#000000" stroke-width="1.000000px" />
			<path fill="none" d=" M220,361.667 L120,415 M120,415 L120,465 M120,465 L150,502.5" stroke="#000000" stroke-width="1.000000px" />
		</g>
		<g>
			<polygon points="325,207.043,319.937,206.079,320.986,203.81," stroke="#000000" stroke-width="1.000000px" />
			<path fill="none" d=" M180,140 L325,207.043" stroke="#000000" stroke-width="1.000000px" />
		</g>
		<g>
			<polygon points="160,525,158.75,530,161.25,530," stroke="#000000" stroke-width="1.000000px" />
			<path fill="none" d=" M180,625 L160,575 M160,575 L160,530" stroke="#000000" stroke-width="1.000000px" />
		</g>
		<g>
			<polygon points="170,508.75,173.577,505.04,174.902,507.16," stroke="#000000" stroke-width="1.000000px" />
			<path fill="none" d=" M240,465 L170,508.75" stroke="#000000" stroke-width="1.000000px" />
		</g>
		<g>
			<polygon points="150,530,148.267,534.854,146.186,533.467," stroke="#000000" stroke-width="1.000000px" />
			<path fill="none" d=" M150,731.667 L120,625 M120,625 L120,575 M120,575 L150,530" stroke="#000000" stroke-width="1.000000px" />
		</g>
		<g>
			<polygon points="185.625,635,189.166,638.745,186.987,639.971," stroke="#000000" stroke-width="1.000000px" />
			<path fill="none" d=" M240,855 L240,781.667 M240,781.667 L240,731.667 M240,731.667 L185.625,635" stroke="#000000" stroke-width="1.000000px" />
		</g>
		<g>
			<polygon points="177.209,150,177.069,155.152,174.661,154.48," stroke="#000000" stroke-width="1.000000px" />
			<path fill="none" d=" M160,515 L160,465 M160,465 L160,211.667 M160,211.667 L177.209,150" stroke="#000000" stroke-width="1.000000px" />
		</g>
		<g>
			<polygon points="230,349.167,232.147,344.481,234.1,346.043," stroke="#000000" stroke-width="1.000000px" />
			<path fill="none" d=" M260,311.667 L230,349.167" stroke="#000000" stroke-width="1.000000px" />
		</g>
		<g>
			<polygon points="296,271.667,299.644,275.311,297.501,276.597," stroke="#000000" stroke-width="1.000000px" />
			<path fill="none" d=" M280,625 L320,575 M320,575 L320,311.667 M320,311.667 L296,271.667" stroke="#000000" stroke-width="1.000000px" />
		</g>
		<g>
			<polygon points="240,47.1429,236.658,51.0662,235.205,49.0319," stroke="#000000" stroke-width="1.000000px" />
			<path fill="none" d=" M180,140 L180,90 M180,90 L240,47.1429" stroke="#000000" stroke-width="1.000000px" />
		</g>
	</g>
	<g>
		<rect x="240" y="30" width="20" height="20" fill="#FFFFFF" stroke-width="1.000000px" stroke="#000000" />
		<text x="250" y="40" text-anchor="middle" dominant-baseline="middle" font-family="Arial" font-size="10" fill="#000000">N0</text>
	</g>
	<g>
		<rect x="210" y="80" width="20" height="20" fill="#FFFFFF" stroke-width="1.000000px" stroke="#000000" />
		<text x="220" y="90" text-anchor="middle" dominant-baseline="middle" font-family="Arial" font-size="10" fill="#000000">N1</text>
	</g>
	<g>
		<rect x="190" y="565" width="20" height="20" fill="#FFFFFF" stroke-width="1.000000px" stroke="#000000" />
		<text x="200" y="575" text-anchor="middle" dominant-baseline="middle" font-family="Arial" font-size="10" fill="#000000">N2</text>
	</g>
	<g>
		<rect x="140" y="721.66666666666663" width="20" height="20" fill="#FFFFFF" stroke-width="1.000000px" stroke="#000000" />
		<text x="150" y="731.66666666666663" text-anchor="middle" dominant-baseline="middle" font-family="Arial" font-size="10" fill="#000000">N3</text>
	</g>
	<g>
		<rect x="150" y="505" width="20" height="20" fill="#FFFFFF" stroke-width="1.000000px" stroke="#000000" />
		<text x="160" y="515" text-anchor="middle" dominant-baseline="middle" font-family="Arial" font-size="10" fill="#000000">N7</text>
	</g>
	<g>
		<rect x="230" y="454.99999999999994" width="20" height="20" fill="#FFFFFF" stroke-width="1.000000px" stroke="#000000" />
		<text x="240" y="464.99999999999994" text-anchor="middle" dominant-baseline="middle" font-family="Arial" font-size="10" fill="#000000">N8</text>
	</g>
	<g>
		<rect x="30" y="565" width="20" height="20" fill="#FFFFFF" stroke-width="1.000000px" stroke="#000000" />
		<text x="40" y="575" text-anchor="middle" dominant-baseline="middle" font-family="Arial" font-size="10" fill="#000000">N9</text>
	</g>
	<g>
		<rect x="140" y="771.66666666666663" width="20" height="20" fill="#FFFFFF" stroke-width="1.000000px" stroke="#000000" />
		<text x="150" y="781.66666666666663" text-anchor="middle" dominant-baseline="middle" font-family="Arial" font-size="10" fill="#000000">N10</text>
	</g>
	<g>
		<rect x="210" y="351.66666666666663" width="20" height="20" fill="#FFFFFF" stroke-width="1.000000px" stroke="#000000" />
		<text x="220" y="361.66666666666663" text-anchor="middle" dominant-baseline="middle" font-family="Arial" font-size="10" fill="#000000">N11</text>
	</g>
	<g>
		<rect x="370" y="251.66666666666663" width="20" height="20" fill="#FFFFFF" stroke-width="1.000000px" stroke="#000000" />
		<text x="380" y="261.66666666666663" text-anchor="middle" dominant-baseline="middle" font-family="Arial" font-size="10" fill="#000000">N12</text>
	</g>
	<g>
		<rect x="230" y="931.66666666666663" width="20" height="20" fill="#FFFFFF" stroke-width="1.000000px" stroke="#000000" />
		<text x="240" y="941.66666666666663" text-anchor="middle" dominant-baseline="middle" font-family="Arial" font-size="10" fill="#000000">N13</text>
	</g>
	<g>
		<rect x="70" y="771.66666666666663" width="20" height="20" fill="#FFFFFF" stroke-width="1.000000px" stroke="#000000" />
		<text x="80" y="781.66666666666663" text-anchor="middle" dominant-baseline="middle" font-family="Arial" font-size="10" fill="#000000">N14</text>
	</g>
	<g>
		<rect x="280" y="251.66666666666663" width="20" height="20" fill="#FFFFFF" stroke-width="1.000000px" stroke="#000000" />
		<text x="290" y="261.66666666666663" text-anchor="middle" dominant-baseline="middle" font-family="Arial" font-size="10" fill="#000000">N15</text>
	</g>
	<g>
		<rect x="170" y="130" width="20" height="20" fill="#FFFFFF" stroke-width="1.000000px" stroke="#000000" />
		<text x="180" y="140" text-anchor="middle" dominant-baseline="middle" font-family="Arial" font-size="10" fill="#000000">N16</text>
	</g>
	<g>
		<rect x="325" y="201.66666666666666" width="20" height="20" fill="#FFFFFF" stroke-width="1.000000px" stroke="#000000" />
		<text x="335" y="211.66666666666666" text-anchor="middle" dominant-baseline="middle" font-family="Arial" font-size="10" fill="#000000">N17</text>
	</g>
	<g>
		<rect x="250" y="301.66666666666663" width="20" height="20" fill="#FFFFFF" stroke-width="1.000000px" stroke="#000000" />
		<text x="260" y="311.66666666666663" text-anchor="middle" dominant-baseline="middle" font-family="Arial" font-size="10" fill="#000000">N18</text>
	</g>
	<g>
		<rect x="250" y="404.99999999999994" width="20" height="20" fill="#FFFFFF" stroke-width="1.000000px" stroke="#000000" />
		<text x="260" y="414.99999999999994" text-anchor="middle" dominant-baseline="middle" font-family="Arial" font-size="10" fill="#000000">N19</text>
	</g>
	<g>
		<rect x="270" y="615" width="20" height="20" fill="#FFFFFF" stroke-width="1.000000px" stroke="#000000" />
		<text x="280" y="625" text-anchor="middle" dominant-baseline="middle" font-family="Arial" font-size="10" fill="#000000">N20</text>
	</g>
	<g>
		<rect x="230" y="845" width="20" height="20" fill="#FFFFFF" stroke-width="1.000000px" stroke="#000000" />
		<text x="240" y="855" text-anchor="middle" dominant-baseline="middle" font-family="Arial" font-size="10" fill="#000000">N21</text>
	</g>
	<g>
		<rect x="170" y="615" width="20" height="20" fill="#FFFFFF" stroke-width="1.000000px" stroke="#000000" />
		<text x="180" y="625" text-anchor="middle" dominant-baseline="middle" font-family="Arial" font-size="10" fill="#000000">N22</text>
	</g>
</svg>
