<?xml version="1.0" encoding="UTF-8" standalone="no"?>
<!-- Created with Inkscape (http://www.inkscape.org/) -->
<svg
   xmlns:svg="http://www.w3.org/2000/svg"
   xmlns="http://www.w3.org/2000/svg"
   version="1.0"
   width="300"
   height="80"
   id="svg3074">
  <defs
     id="defs3076" />
  <g
     transform="translate(-184.40465,-379.39238)"
     id="layer1">
    <g
       transform="matrix(1.25,0,0,1.25,-232.63393,326.06962)"
       id="g3049">
      <path
         d="M 436.00781,85.777344 L 437.59766,85.777344 C 440.0625,85.777344 441.08203,87.105469 441.08203,88.929688 C 441.08203,91.394531 439.68359,92.578125 437.45312,92.699219 L 436.69531,92.722656 L 436.69531,94.238281 L 437.43359,94.238281 C 441.15234,94.238281 443.54688,91.703125 443.54688,88.90625 C 443.54688,85.683594 441.39062,84.117188 437.88281,84.117188 L 433.71094,84.117188 L 433.71094,100.71094 L 436.00781,100.71094 L 436.00781,85.777344"
         id="path2922"
         style="fill:#8a8a8c;fill-opacity:1;fill-rule:nonzero;stroke:none" />
      <path
         d="M 449.44922,84.117188 L 442.69141,100.71094 L 444.92188,100.71094 L 446.69922,95.828125 L 453.02734,95.828125 L 454.73438,100.71094 L 457.39062,100.71094 L 451.20312,84.117188 L 449.44922,84.117188 z M 447.33984,94.167969 C 448.24219,91.871094 449.11719,89.570312 449.96875,86.582031 L 450.01953,86.582031 C 450.84766,89.570312 451.65234,91.871094 452.48438,94.167969 L 447.33984,94.167969"
         id="path2924"
         style="fill:#8a8a8c;fill-opacity:1;fill-rule:evenodd;stroke:none" />
      <path
         d="M 468.15234,85.492188 C 467.23047,84.449219 465.78125,83.835938 464.05469,83.835938 C 461.46875,83.835938 459.3125,85.515625 459.3125,87.746094 C 459.3125,90.09375 460.85156,91.109375 462.22656,92.179688 C 463.57812,93.171875 466.06641,94.523438 466.06641,96.609375 C 466.06641,98.460938 464.8125,99.335938 463.17578,99.335938 C 461.61328,99.335938 460.54688,98.578125 459.57422,97.890625 L 458.55469,99.265625 C 459.73828,100.42578 461.63672,100.99609 463.22266,100.99609 C 465.87891,100.99609 468.36719,99.289062 468.36719,96.65625 C 468.36719,94.523438 467.03906,93.007812 464.76562,91.347656 C 462.63281,89.808594 461.61328,88.929688 461.61328,87.746094 C 461.61328,86.464844 462.53516,85.492188 464.19531,85.492188 C 465.19141,85.492188 466.25781,86.085938 467.0625,86.679688 L 468.15234,85.492188"
         id="path2926"
         style="fill:#8a8a8c;fill-opacity:1;fill-rule:nonzero;stroke:none" />
      <path
         d="M 480.47656,85.492188 C 479.55469,84.449219 478.10547,83.835938 476.375,83.835938 C 473.79297,83.835938 471.63672,85.515625 471.63672,87.746094 C 471.63672,90.09375 473.17578,91.109375 474.55078,92.179688 C 475.90234,93.171875 478.39062,94.523438 478.39062,96.609375 C 478.39062,98.460938 477.13672,99.335938 475.5,99.335938 C 473.93359,99.335938 472.86719,98.578125 471.89453,97.890625 L 470.87891,99.265625 C 472.0625,100.42578 473.96094,100.99609 475.54688,100.99609 C 478.20312,100.99609 480.69141,99.289062 480.69141,96.65625 C 480.69141,94.523438 479.36328,93.007812 477.08984,91.347656 C 474.95312,89.808594 473.93359,88.929688 473.93359,87.746094 C 473.93359,86.464844 474.85938,85.492188 476.51953,85.492188 C 477.51562,85.492188 478.58203,86.085938 479.38672,86.679688 L 480.47656,85.492188"
         id="path2928"
         style="fill:#8a8a8c;fill-opacity:1;fill-rule:nonzero;stroke:none" />
      <path
         d="M 488.60547,84.117188 L 481.85156,100.71094 L 484.07812,100.71094 L 485.85547,95.828125 L 492.1875,95.828125 L 493.89062,100.71094 L 496.54688,100.71094 L 490.35938,84.117188 L 488.60547,84.117188 z M 486.49609,94.167969 C 487.39844,91.871094 488.27344,89.570312 489.12891,86.582031 L 489.17578,86.582031 C 490.00391,89.570312 490.80859,91.871094 491.64062,94.167969 L 486.49609,94.167969"
         id="path2930"
         style="fill:#8a8a8c;fill-opacity:1;fill-rule:evenodd;stroke:none" />
      <path
         d="M 498.20703,84.117188 L 498.20703,94.265625 C 498.20703,98.53125 500.08203,100.99609 504.75,100.99609 C 508.75781,100.99609 511.05469,98.339844 511.05469,94.617188 L 511.05469,84.117188 L 508.89844,84.117188 L 508.89844,94.570312 C 508.89844,96.941406 507.85547,99.40625 504.75,99.40625 C 501.78906,99.40625 500.50781,97.605469 500.50781,94.167969 L 500.50781,84.117188 L 498.20703,84.117188"
         id="path2932"
         style="fill:#8a8a8c;fill-opacity:1;fill-rule:nonzero;stroke:none" />
      <path
         d="M 433.47266,62.082031 L 433.47266,72.226562 C 433.47266,76.492188 435.34375,78.960938 440.01562,78.960938 C 444.01953,78.960938 446.32031,76.304688 446.32031,72.582031 L 446.32031,62.082031 L 444.16406,62.082031 L 444.16406,72.535156 C 444.16406,74.90625 443.12109,77.371094 440.01562,77.371094 C 437.05469,77.371094 435.77344,75.570312 435.77344,72.132812 L 435.77344,62.082031 L 433.47266,62.082031"
         id="path2934"
         style="fill:#8a8a8c;fill-opacity:1;fill-rule:nonzero;stroke:none" />
      <path
         d="M 464.60156,62.082031 L 462.70703,62.082031 L 462.70703,75.308594 L 462.65625,75.308594 C 461.54297,73.648438 455.42969,66.394531 451.77734,62.082031 L 450.07031,62.082031 L 450.07031,78.675781 L 451.96484,78.675781 L 451.96484,65.472656 L 452.01562,65.472656 C 453.01172,66.917969 459.19531,74.359375 462.80078,78.675781 L 464.60156,78.675781 L 464.60156,62.082031"
         id="path2936"
         style="fill:#8a8a8c;fill-opacity:1;fill-rule:nonzero;stroke:none" />
      <path
         d="M 468.58594,78.675781 L 470.88672,78.675781 L 470.88672,62.082031 L 468.58594,62.082031 L 468.58594,78.675781 z"
         id="path2938"
         style="fill:#8a8a8c;fill-opacity:1;fill-rule:nonzero;stroke:none" />
      <path
         d="M 480.4375,78.675781 L 487.05078,62.128906 L 484.98828,61.84375 C 483.30469,66.371094 481.59766,70.921875 479.9375,76.019531 L 479.89062,76.019531 C 478.30469,70.921875 476.71484,66.371094 475.10156,61.84375 L 472.75781,62.269531 L 478.89844,78.675781 L 480.4375,78.675781"
         id="path2940"
         style="fill:#8a8a8c;fill-opacity:1;fill-rule:nonzero;stroke:none" />
      <path
         d="M 497.10156,62.082031 L 488.92188,62.082031 L 488.92188,78.675781 L 498.12109,78.675781 L 498.12109,77.015625 L 491.22266,77.015625 L 491.22266,70.757812 L 496.98438,70.757812 L 496.98438,69.097656 L 491.22266,69.097656 L 491.22266,63.738281 L 497.10156,63.738281 L 497.10156,62.082031"
         id="path2942"
         style="fill:#8a8a8c;fill-opacity:1;fill-rule:nonzero;stroke:none" />
      <path
         d="M 503.00391,63.738281 L 504.97266,63.738281 C 506.51172,63.738281 507.78906,64.523438 507.78906,66.5625 C 507.78906,67.960938 507.24609,70.140625 504.30859,70.140625 L 503.00391,70.140625 L 503.00391,63.738281 z M 500.70312,78.675781 L 503.00391,78.675781 L 503.00391,71.800781 L 505.44531,71.800781 L 509.28516,78.957031 L 511.60938,78.246094 L 507.48438,71.183594 C 509.07031,70.164062 510.25781,68.789062 510.25781,66.347656 C 510.25781,63.480469 508.14844,62.082031 505.44531,62.082031 L 500.70312,62.082031 L 500.70312,78.675781"
         id="path2944"
         style="fill:#8a8a8c;fill-opacity:1;fill-rule:evenodd;stroke:none" />
      <path
         d="M 522.75,63.457031 C 521.82422,62.414062 520.37891,61.796875 518.64844,61.796875 C 516.0625,61.796875 513.90625,63.480469 513.90625,65.707031 C 513.90625,68.054688 515.44922,69.074219 516.82422,70.140625 C 518.17578,71.136719 520.66406,72.488281 520.66406,74.574219 C 520.66406,76.421875 519.40625,77.300781 517.77344,77.300781 C 516.20703,77.300781 515.14062,76.539062 514.16797,75.851562 L 513.14844,77.226562 C 514.33594,78.390625 516.23047,78.960938 517.82031,78.960938 C 520.47656,78.960938 522.96484,77.253906 522.96484,74.621094 C 522.96484,72.488281 521.63672,70.972656 519.35938,69.3125 C 517.22656,67.769531 516.20703,66.894531 516.20703,65.707031 C 516.20703,64.425781 517.13281,63.457031 518.78906,63.457031 C 519.78906,63.457031 520.85547,64.050781 521.66016,64.640625 L 522.75,63.457031"
         id="path2946"
         style="fill:#8a8a8c;fill-opacity:1;fill-rule:nonzero;stroke:none" />
      <path
         d="M 526.21094,78.675781 L 528.50781,78.675781 L 528.50781,62.082031 L 526.21094,62.082031 L 526.21094,78.675781 z"
         id="path2948"
         style="fill:#8a8a8c;fill-opacity:1;fill-rule:nonzero;stroke:none" />
      <path
         d="M 538.22266,78.675781 L 538.22266,63.738281 L 543.55859,63.738281 L 543.55859,62.082031 L 530.61719,62.082031 L 530.61719,63.738281 L 535.92578,63.738281 L 535.92578,78.675781 L 538.22266,78.675781"
         id="path2950"
         style="fill:#8a8a8c;fill-opacity:1;fill-rule:nonzero;stroke:none" />
      <path
         d="M 548.53516,57.199219 C 547.94531,57.199219 547.35156,57.816406 547.35156,58.40625 C 547.35156,59.046875 547.92188,59.640625 548.53516,59.640625 C 549.19922,59.640625 549.74609,59.070312 549.74609,58.40625 C 549.74609,57.765625 549.19922,57.199219 548.53516,57.199219 z M 553.30469,57.199219 C 552.71094,57.199219 552.11719,57.816406 552.11719,58.40625 C 552.11719,59.046875 552.6875,59.640625 553.30469,59.640625 C 553.96484,59.640625 554.51172,59.070312 554.51172,58.40625 C 554.51172,57.765625 553.96484,57.199219 553.30469,57.199219 z M 550.33984,62.082031 L 543.58594,78.675781 L 545.8125,78.675781 L 547.58984,73.789062 L 553.91797,73.789062 L 555.625,78.675781 L 558.28125,78.675781 L 552.09375,62.082031 L 550.33984,62.082031 z M 548.23047,72.132812 C 549.12891,69.832031 550.00781,67.53125 550.85938,64.546875 L 550.90625,64.546875 C 551.73828,67.53125 552.54297,69.832031 553.37109,72.132812 L 548.23047,72.132812"
         id="path2952"
         style="fill:#8a8a8c;fill-opacity:1;fill-rule:evenodd;stroke:none" />
      <path
         d="M 565.91406,78.675781 L 565.91406,63.738281 L 571.25,63.738281 L 571.25,62.082031 L 558.30469,62.082031 L 558.30469,63.738281 L 563.61719,63.738281 L 563.61719,78.675781 L 565.91406,78.675781"
         id="path2954"
         style="fill:#8a8a8c;fill-opacity:1;fill-rule:nonzero;stroke:none" />
      <path
         d="M 378.45703,70.921875 L 378.45312,43.746094 L 401.42188,52.085938 L 401.42188,62.210938 L 403.66797,62.210938 L 403.66797,52.027344 L 426.49609,43.710938 L 426.49609,100.64844 L 424.19531,98.347656 L 424.19531,46.996094 L 405.96875,53.636719 L 405.96875,68.871094 L 399.12109,68.871094 L 399.12109,53.695312 L 380.75391,47.027344 L 380.75781,70.730469 L 378.45703,70.921875"
         id="path2956"
         style="fill:#8a8a8c;fill-opacity:1;fill-rule:nonzero;stroke:none" />
      <path
         d="M 412.94531,105.60547 L 425.6875,105.60547 C 416.23438,96.851562 407.52344,84.382812 421.69922,82.042969 L 420.13281,81.480469 C 405.48438,83.472656 407.23438,94.589844 412.94531,105.60547"
         id="path2958"
         style="fill:#f8971c;fill-opacity:1;fill-rule:nonzero;stroke:none" />
      <path
         d="M 354.41797,91.300781 L 367.48438,91.300781 C 374.92578,80.148438 388.58203,77.390625 405.76172,76.214844 L 404.20312,75.648438 C 383.22656,75.902344 362.63281,80.664062 354.41797,91.300781"
         id="path2960"
         style="fill:#f8971c;fill-opacity:1;fill-rule:nonzero;stroke:none" />
      <path
         d="M 373.5,96.046875 L 386.62891,96.046875 C 388.51172,85.222656 397.21484,79.816406 411.11719,78.175781 L 409.57031,77.617188 C 391.42578,79.207031 376.64453,84.453125 373.5,96.046875"
         id="path2962"
         style="fill:#f8971c;fill-opacity:1;fill-rule:nonzero;stroke:none" />
      <path
         d="M 392.94922,100.70703 L 405.28516,100.80469 C 401.97266,91.003906 402.91016,81.71875 416.39453,80.085938 L 414.81641,79.511719 C 400.13672,80.910156 392.17578,89.542969 392.94922,100.70703"
         id="path2964"
         style="fill:#f8971c;fill-opacity:1;fill-rule:nonzero;stroke:none" />
      <path
         d="M 336.01172,86.511719 C 344.23438,79.578125 369.72266,73.5625 398.63281,73.5625 L 400.36719,74.222656 C 372.60156,74.523438 359.75781,79.757812 349.07031,86.578125 L 336.01172,86.511719"
         id="path2966"
         style="fill:#f8971c;fill-opacity:1;fill-rule:nonzero;stroke:none" />
    </g>
  </g>
</svg>
