<?xml version="1.0" encoding="UTF-8" standalone="no"?>
<!-- Created with Inkscape (http://www.inkscape.org/) -->

<svg
   version="1.0"
   width="113.10535"
   height="77.368164"
   id="svg3074"
   sodipodi:docname="upassau.svg"
   inkscape:version="1.3 (0e150ed6c4, 2023-07-21)"
   xmlns:inkscape="http://www.inkscape.org/namespaces/inkscape"
   xmlns:sodipodi="http://sodipodi.sourceforge.net/DTD/sodipodi-0.dtd"
   xmlns="http://www.w3.org/2000/svg"
   xmlns:svg="http://www.w3.org/2000/svg">
  <sodipodi:namedview
     id="namedview1"
     pagecolor="#ffffff"
     bordercolor="#666666"
     borderopacity="1.0"
     inkscape:showpageshadow="2"
     inkscape:pageopacity="0.0"
     inkscape:pagecheckerboard="0"
     inkscape:deskcolor="#d1d1d1"
     inkscape:zoom="4.3166667"
     inkscape:cx="111.08108"
     inkscape:cy="52.007722"
     inkscape:window-width="1920"
     inkscape:window-height="1043"
     inkscape:window-x="0"
     inkscape:window-y="0"
     inkscape:window-maximized="1"
     inkscape:current-layer="svg3074" />
  <defs
     id="defs3076" />
  <path
     d="m 53.056637,34.013671 -0.005,-33.969726 28.71095,10.424804 v 12.65625 H 84.5702 V 10.395508 L 113.10535,0 v 71.171878 l -2.87598,-2.87598 V 4.106445 L 87.446175,12.407227 V 31.450194 H 78.8866 V 12.480468 l -22.958975,-8.3349605 0.005,29.6289055 -2.875975,0.239258"
     id="path2956"
     style="fill:#8a8a8c;fill-opacity:1;fill-rule:nonzero;stroke:none;stroke-width:1.25" />
  <path
     d="M 96.166987,77.368165 H 112.09472 C 100.27832,66.42578 89.38965,50.839842 107.10938,47.915038 l -1.95802,-0.703125 C 86.840825,49.702147 89.028325,63.598632 96.166987,77.368165"
     id="path2958"
     style="fill:#f8971c;fill-opacity:1;fill-rule:nonzero;stroke:none;stroke-width:1.25" />
  <path
     d="M 23.007812,59.487303 H 39.340825 C 48.642575,45.546874 65.712888,42.099608 87.1875,40.629882 l -1.94825,-0.708008 c -26.2207,0.317383 -51.962888,6.26953 -62.231438,19.565429"
     id="path2960"
     style="fill:#f8971c;fill-opacity:1;fill-rule:nonzero;stroke:none;stroke-width:1.25" />
  <path
     d="M 46.86035,65.419921 H 63.271487 C 65.625,51.889647 76.5039,45.131835 93.881838,43.081053 L 91.948237,42.382812 C 69.267575,44.370116 50.791012,50.927733 46.86035,65.419921"
     id="path2962"
     style="fill:#f8971c;fill-opacity:1;fill-rule:nonzero;stroke:none;stroke-width:1.25" />
  <path
     d="M 71.171875,71.245115 86.5918,71.36724 C 82.451175,59.11626 83.62305,47.509815 100.47851,45.4688 L 98.50586,44.751026 C 80.15625,46.499072 70.205075,57.290088 71.171875,71.245165"
     id="path2964"
     style="fill:#f8971c;fill-opacity:1;fill-rule:nonzero;stroke:none;stroke-width:1.25" />
  <path
     d="M 0,53.500976 C 10.278325,44.833983 42.138675,37.314452 78.276362,37.314452 l 2.167975,0.825195 C 45.7373,38.515624 29.682612,45.058592 16.323237,53.583983 L 0,53.500971"
     id="path2966"
     style="fill:#f8971c;fill-opacity:1;fill-rule:nonzero;stroke:none;stroke-width:1.25" />
</svg>
