<svg xmlns="http://www.w3.org/2000/svg" xmlns:xlink="http://www.w3.org/1999/xlink" xmlns:ev="http://www.w3.org/2001/xml-events" version="1.1" baseProfile="full" viewBox="-453.833 -20.5 484.333 381">
	<g>
		<g>
			<polygon points="-100,105,-93.1787,101.362,-92.2692,105," stroke="#969696" stroke-width="1.000000px"></polygon>
			<path fill="none" d=" M-40,90 L-100,105" stroke="#969696" stroke-width="1.000000px"></path>
		</g>
		<g>
			<polygon points="-378.333,120,-373.302,125.87,-376.656,127.547," stroke="#ADD8E6" stroke-width="1.000000px"></polygon>
			<path fill="none" d=" M-273.333,250 L-323.333,230 M-323.333,230 L-378.333,120" stroke="#ADD8E6" stroke-width="1.000000px"></path>
		</g>
		<g>
			<polygon points="-363.333,270,-355.833,268.125,-355.833,271.875," stroke="#00008B" stroke-width="1.000000px"></polygon>
			<path fill="none" d=" M-273.333,250 L-323.333,270 M-323.333,270 L-363.333,270" stroke="#00008B" stroke-width="1.000000px"></path>
		</g>
		<g>
			<polygon points="-368.333,100,-363.133,94.2797,-361.053,97.3998," stroke="#969696" stroke-width="1.000000px"></polygon>
			<path fill="none" d=" M-170,70 L-220,70 M-220,70 L-323.333,70 M-323.333,70 L-368.333,100" stroke="#969696" stroke-width="1.000000px"></path>
		</g>
		<g>
			<polygon points="-157.5,140,-152.815,133.851,-150.472,136.779," stroke="#969696" stroke-width="1.000000px"></polygon>
			<path fill="none" d=" M-120,110 L-157.5,140" stroke="#969696" stroke-width="1.000000px"></path>
		</g>
		<g>
			<polygon points="-377.333,260,-375.082,252.604,-371.867,254.533," stroke="#90EE90" stroke-width="1.000000px"></polygon>
			<path fill="none" d=" M-323.333,170 L-377.333,260" stroke="#90EE90" stroke-width="1.000000px"></path>
		</g>
		<g>
			<polygon points="-264.444,160,-258.06,164.36,-260.863,166.851," stroke="#969696" stroke-width="1.000000px"></polygon>
			<path fill="none" d=" M-220,210 L-264.444,160" stroke="#969696" stroke-width="1.000000px"></path>
		</g>
		<g>
			<polygon points="-303.333,162,-297.066,157.474,-295.673,160.955," stroke="#969696" stroke-width="1.000000px"></polygon>
			<path fill="none" d=" M-273.333,150 L-303.333,162" stroke="#969696" stroke-width="1.000000px"></path>
		</g>
		<g>
			<polygon points="-373.333,120,-366.704,123.977,-369.356,126.629," stroke="#00008B" stroke-width="1.000000px"></polygon>
			<path fill="none" d=" M-323.333,170 L-373.333,120" stroke="#00008B" stroke-width="1.000000px"></path>
		</g>
		<g>
			<polygon points="-190,150,-197.5,151.875,-197.5,148.125," stroke="#969696" stroke-width="1.000000px"></polygon>
			<path fill="none" d=" M-273.333,150 L-220,150 M-220,150 L-190,150" stroke="#969696" stroke-width="1.000000px"></path>
		</g>
		<g>
			<polygon points="-211.667,200,-208.306,193.038,-205.425,195.439," stroke="#969696" stroke-width="1.000000px"></polygon>
			<path fill="none" d=" M-170,150 L-211.667,200" stroke="#969696" stroke-width="1.000000px"></path>
		</g>
		<g>
			<polygon points="-368.333,280,-361.053,282.6,-363.133,285.72," stroke="#90EE90" stroke-width="1.000000px"></polygon>
			<path fill="none" d=" M-220,210 L-273.333,310 M-273.333,310 L-323.333,310 M-323.333,310 L-368.333,280" stroke="#90EE90" stroke-width="1.000000px"></path>
		</g>
		<g>
			<polygon points="-157.5,80,-150.472,83.2211,-152.815,86.1493," stroke="#969696" stroke-width="1.000000px"></polygon>
			<path fill="none" d=" M-120,110 L-157.5,80" stroke="#969696" stroke-width="1.000000px"></path>
		</g>
		<g>
			<polygon points="-60,85,-67.7308,85,-66.8213,81.362," stroke="#969696" stroke-width="1.000000px"></polygon>
			<path fill="none" d=" M-170,70 L-120,70 M-120,70 L-60,85" stroke="#969696" stroke-width="1.000000px"></path>
		</g>
		<g>
			<polygon points="-253.333,257.5,-245.653,258.378,-246.969,261.889," stroke="#00008B" stroke-width="1.000000px"></polygon>
			<path fill="none" d=" M-40,90 L-120,270 M-120,270 L-220,270 M-220,270 L-253.333,257.5" stroke="#00008B" stroke-width="1.000000px"></path>
		</g>
		<g>
			<polygon points="-317.083,180,-311.518,185.366,-314.698,187.354," stroke="#00008B" stroke-width="1.000000px"></polygon>
			<path fill="none" d=" M-273.333,250 L-317.083,180" stroke="#00008B" stroke-width="1.000000px"></path>
		</g>
		<g>
			<polygon points="-53.3333,80,-60.4583,77,-58.2083,74," stroke="#90EE90" stroke-width="1.000000px"></polygon>
			<path fill="none" d=" M-383.333,110 L-323.333,30 M-323.333,30 L-120,30 M-120,30 L-53.3333,80" stroke="#90EE90" stroke-width="1.000000px"></path>
		</g>
		<g>
			<polygon points="-240,202.5,-247.681,201.622,-246.364,198.111," stroke="#00008B" stroke-width="1.000000px"></polygon>
			<path fill="none" d=" M-323.333,170 L-273.333,190 M-273.333,190 L-240,202.5" stroke="#00008B" stroke-width="1.000000px"></path>
		</g>
		<g>
			<polygon points="-260,240,-255.125,234,-252.875,237," stroke="#90EE90" stroke-width="1.000000px"></polygon>
			<path fill="none" d=" M-220,210 L-260,240" stroke="#90EE90" stroke-width="1.000000px"></path>
		</g>
		<g>
			<polygon points="-363.333,110,-355.833,108.125,-355.833,111.875," stroke="#969696" stroke-width="1.000000px"></polygon>
			<path fill="none" d=" M-170,150 L-220,110 M-220,110 L-323.333,110 M-323.333,110 L-363.333,110" stroke="#969696" stroke-width="1.000000px"></path>
		</g>
	</g>
	<g>
		<rect x="-60" y="80" width="40" height="20" fill="#FFFFFF" stroke-width="1.000000px" stroke="#969696"></rect>
		<text x="-40" y="90" text-anchor="middle" dominant-baseline="middle" font-family="Arial" font-size="10" fill="#000000">(1, -1)</text>
	</g>
	<g>
		<rect x="-140" y="100" width="40" height="20" fill="#FFFFFF" stroke-width="1.000000px" stroke="#E6E6E6"></rect>
		<text x="-120" y="110" text-anchor="middle" dominant-baseline="middle" font-family="Arial" font-size="10" fill="#000000"></text>
	</g>
	<g>
		<rect x="-343.33333333333337" y="160" width="40" height="20" fill="#FFFFFF" stroke-width="1.000000px" stroke="#969696"></rect>
		<text x="-323.33333333333337" y="170" text-anchor="middle" dominant-baseline="middle" font-family="Arial" font-size="10" fill="#000000">(5, -1)</text>
	</g>
	<g>
		<rect x="-240" y="200" width="40" height="20" fill="#FFB6C1" stroke-width="1.000000px" stroke="#969696"></rect>
		<text x="-220" y="210" text-anchor="middle" dominant-baseline="middle" font-family="Arial" font-size="10" fill="#000000">(8, -1)</text>
	</g>
	<g>
		<rect x="-293.33333333333337" y="140" width="40" height="20" fill="#FFFFFF" stroke-width="1.000000px" stroke="#E6E6E6"></rect>
		<text x="-273.33333333333337" y="150" text-anchor="middle" dominant-baseline="middle" font-family="Arial" font-size="10" fill="#000000"></text>
	</g>
	<g>
		<rect x="-403.33333333333337" y="100" width="40" height="20" fill="#FFFFFF" stroke-width="1.000000px" stroke="#000000"></rect>
		<text x="-383.33333333333337" y="110" text-anchor="middle" dominant-baseline="middle" font-family="Arial" font-size="10" fill="#000000">(6, 7)</text>
	</g>
	<g>
		<rect x="-190" y="140" width="40" height="20" fill="#FFFFFF" stroke-width="1.000000px" stroke="#E6E6E6"></rect>
		<text x="-170" y="150" text-anchor="middle" dominant-baseline="middle" font-family="Arial" font-size="10" fill="#000000"></text>
	</g>
	<g>
		<rect x="-403.33333333333337" y="260" width="40" height="20" fill="#FFFFFF" stroke-width="1.000000px" stroke="#000000"></rect>
		<text x="-383.33333333333337" y="270" text-anchor="middle" dominant-baseline="middle" font-family="Arial" font-size="10" fill="#000000">(3, 4)</text>
	</g>
	<g>
		<rect x="-190" y="60" width="40" height="20" fill="#FFFFFF" stroke-width="1.000000px" stroke="#E6E6E6"></rect>
		<text x="-170" y="70" text-anchor="middle" dominant-baseline="middle" font-family="Arial" font-size="10" fill="#000000"></text>
	</g>
	<g>
		<rect x="-293.33333333333337" y="240" width="40" height="20" fill="#FFFFFF" stroke-width="1.000000px" stroke="#969696"></rect>
		<text x="-273.33333333333337" y="250" text-anchor="middle" dominant-baseline="middle" font-family="Arial" font-size="10" fill="#000000">(2, -1)</text>
	</g>
</svg>