<?xml version="1.0" encoding="UTF-8" standalone="no"?>
<svg
   version="1.1"
   viewBox="-20.5 -20.5 601 664.33331"
   id="svg61"
   sodipodi:docname="editor.svg"
   width="601"
   height="664.33331"
   inkscape:version="1.3 (0e150ed6c4, 2023-07-21)"
   xmlns:inkscape="http://www.inkscape.org/namespaces/inkscape"
   xmlns:sodipodi="http://sodipodi.sourceforge.net/DTD/sodipodi-0.dtd"
   xmlns="http://www.w3.org/2000/svg"
   xmlns:svg="http://www.w3.org/2000/svg">
  <defs
     id="defs61" />
  <sodipodi:namedview
     id="namedview61"
     pagecolor="#ffffff"
     bordercolor="#666666"
     borderopacity="1.0"
     inkscape:showpageshadow="2"
     inkscape:pageopacity="0.0"
     inkscape:pagecheckerboard="0"
     inkscape:deskcolor="#d1d1d1"
     inkscape:zoom="1.6263771"
     inkscape:cx="284.37439"
     inkscape:cy="310.19866"
     inkscape:window-width="1920"
     inkscape:window-height="1043"
     inkscape:window-x="0"
     inkscape:window-y="0"
     inkscape:window-maximized="1"
     inkscape:current-layer="path41" />
  <g
     id="g41"
     transform="translate(-50,-50)">
    <g
       id="g1">
      <polygon
         points="440.88,127.681 445,130.778 439.908,129.984 "
         stroke="#000000"
         stroke-width="1px"
         id="polygon1" />
      <path
         fill="none"
         d="m 230,40 215,90.778"
         stroke="#000000"
         stroke-width="1px"
         id="path1" />
    </g>
    <g
       id="g2">
      <polygon
         points="415.909,572.532 420,575.667 414.915,574.826 "
         stroke="#000000"
         stroke-width="1px"
         id="polygon2" />
      <path
         fill="none"
         d="m 230,40 v 95 m 0,0 v 358.333 m 0,0 190,82.334"
         stroke="#000000"
         stroke-width="1px"
         id="path2" />
    </g>
    <g
       id="g3">
      <polygon
         points="174.925,345.452 172.5,350 172.5,344.846 "
         stroke="#000000"
         stroke-width="1px"
         id="polygon3" />
      <path
         fill="none"
         d="m 230,40 -40,95 m 0,0 v 145 m 0,0 -17.5,70"
         stroke="#000000"
         stroke-width="1px"
         id="path3" />
    </g>
    <g
       id="g4">
      <polygon
         points="546.151,181.335 550,184.762 544.991,183.549 "
         stroke="#000000"
         stroke-width="1px"
         id="polygon4" />
      <path
         fill="none"
         d="m 455,135 95,49.762"
         stroke="#000000"
         stroke-width="1px"
         id="path4" />
    </g>
    <g
       id="g5">
      <polygon
         points="203.541,567.174 199.231,570 201.704,565.478 "
         stroke="#000000"
         stroke-width="1px"
         id="polygon5" />
      <path
         fill="none"
         d="m 290,360 -20,60 m 0,0 v 73.333 m 0,0 L 199.231,570"
         stroke="#000000"
         stroke-width="1px"
         id="path5" />
    </g>
    <g
       id="g6">
      <polygon
         points="205.085,574.826 200,575.667 204.091,572.532 "
         stroke="#000000"
         stroke-width="1px"
         id="polygon6" />
      <path
         fill="none"
         d="m 430,360 -40,60 m 0,0 v 73.333 m 0,0 -190,82.334"
         stroke="#000000"
         stroke-width="1px"
         id="path6" />
    </g>
    <g
       id="g7">
      <polygon
         points="361.186,266.683 357.241,270 359.162,265.217 "
         stroke="#000000"
         stroke-width="1px"
         id="polygon7" />
      <path
         fill="none"
         d="m 455,135 -39.828,55 m 0,0 -57.931,80"
         stroke="#000000"
         stroke-width="1px"
         id="path7" />
    </g>
    <g
       id="g8">
      <polygon
         points="515.939,352.383 520,355.556 514.923,354.667 "
         stroke="#000000"
         stroke-width="1px"
         id="polygon8" />
      <path
         fill="none"
         d="m 350,280 170,75.556"
         stroke="#000000"
         stroke-width="1px"
         id="path8" />
    </g>
    <g
       id="g9">
      <polygon
         points="564.902,675.493 560,677.083 563.577,673.373 "
         stroke="#000000"
         stroke-width="1px"
         id="polygon9" />
      <path
         fill="none"
         d="m 560,190 70,90 m 0,0 v 353.333 m 0,0 -70,43.75"
         stroke="#000000"
         stroke-width="1px"
         id="path9" />
    </g>
    <g
       id="g10">
      <polygon
         points="107.913,264.848 107.778,270 105.473,265.39 "
         stroke="#000000"
         stroke-width="1px"
         id="polygon10" />
      <path
         fill="none"
         d="m 90,190 17.778,80"
         stroke="#000000"
         stroke-width="1px"
         id="path10" />
    </g>
    <g
       id="g11">
      <polygon
         points="157.348,405.581 160,410 155.581,407.348 "
         stroke="#000000"
         stroke-width="1px"
         id="polygon11" />
      <path
         fill="none"
         d="m 110,280 v 80 m 0,0 50,50"
         stroke="#000000"
         stroke-width="1px"
         id="path11" />
    </g>
    <g
       id="g12">
      <polygon
         points="327.163,478.181 327.273,483.333 324.751,478.838 "
         stroke="#000000"
         stroke-width="1px"
         id="polygon12" />
      <path
         fill="none"
         d="m 290,360 20,60 m 0,0 17.273,63.333"
         stroke="#000000"
         stroke-width="1px"
         id="path12" />
    </g>
    <g
       id="g13">
      <polygon
         points="533.865,345.293 531.765,350 531.403,344.859 "
         stroke="#000000"
         stroke-width="1px"
         id="polygon13" />
      <path
         fill="none"
         d="m 560,190 -15.882,90 m 0,0 -12.353,70"
         stroke="#000000"
         stroke-width="1px"
         id="path13" />
    </g>
    <g
       id="g14">
      <polygon
         points="551.25,668.333 550,673.333 548.75,668.333 "
         stroke="#000000"
         stroke-width="1px"
         id="polygon14" />
      <path
         fill="none"
         d="m 530,360 20,60 m 0,0 v 213.333 m 0,0 v 35"
         stroke="#000000"
         stroke-width="1px"
         id="path14" />
    </g>
    <g
       id="g15">
      <polygon
         points="492.837,435.153 492.727,430 495.249,434.495 "
         stroke="#000000"
         stroke-width="1px"
         id="polygon15" />
      <path
         fill="none"
         d="M 490,633.333 510,580 m 0,0 v -86.667 m 0,0 L 492.727,430"
         stroke="#000000"
         stroke-width="1px"
         id="path15" />
    </g>
    <g
       id="g16">
      <polygon
         points="160.5,345.25 162.5,350 158.5,346.75 "
         stroke="#000000"
         stroke-width="1px"
         id="polygon16" />
      <path
         fill="none"
         d="m 110,280 52.5,70"
         stroke="#000000"
         stroke-width="1px"
         id="path16" />
    </g>
    <g
       id="g17">
      <polygon
         points="124.419,407.348 120,410 122.652,405.581 "
         stroke="#000000"
         stroke-width="1px"
         id="polygon17" />
      <path
         fill="none"
         d="m 170,360 -50,50"
         stroke="#000000"
         stroke-width="1px"
         id="path17" />
    </g>
    <g
       id="g18">
      <polygon
         points="63.2486,478.345 64.5455,483.333 61.0538,479.542 "
         stroke="#000000"
         stroke-width="1px"
         id="polygon18" />
      <path
         fill="none"
         d="m 90,190 -60,90 m 0,0 v 140 m 0,0 34.5455,63.333"
         stroke="#000000"
         stroke-width="1px"
         id="path18" />
    </g>
    <g
       id="g19">
      <polygon
         points="101.6,405.146 103.333,410 99.5198,406.533 "
         stroke="#000000"
         stroke-width="1px"
         id="polygon19" />
      <path
         fill="none"
         d="m 90,190 -20,90 m 0,0 v 80 m 0,0 33.333,50"
         stroke="#000000"
         stroke-width="1px"
         id="path19" />
    </g>
    <g
       id="g20">
      <polygon
         points="78.9462,479.542 75.4545,483.333 76.7514,478.345 "
         stroke="#000000"
         stroke-width="1px"
         id="polygon20" />
      <path
         fill="none"
         d="M 110,420 75.4545,483.333"
         stroke="#000000"
         stroke-width="1px"
         id="path20" />
    </g>
    <g
       id="g21">
      <polygon
         points="176.678,568.837 180,572.778 175.215,570.864 "
         stroke="#000000"
         stroke-width="1px"
         id="polygon21" />
      <path
         fill="none"
         d="m 70,493.333 110,79.445"
         stroke="#000000"
         stroke-width="1px"
         id="path21" />
    </g>
    <g
       id="g22">
      <polygon
         points="431.25,478.333 430,483.333 428.75,478.333 "
         stroke="#000000"
         stroke-width="1px"
         id="polygon22" />
      <path
         fill="none"
         d="m 430,360 v 60 m 0,0 v 58.333"
         stroke="#000000"
         stroke-width="1px"
         id="path22" />
    </g>
    <g
       id="g23">
      <polygon
         points="477.093,620.188 480,624.444 475.432,622.057 "
         stroke="#000000"
         stroke-width="1px"
         id="polygon23" />
      <path
         fill="none"
         d="m 430,580 50,44.444"
         stroke="#000000"
         stroke-width="1px"
         id="path23" />
    </g>
    <g
       id="g24">
      <polygon
         points="536.959,670.839 540,675 535.359,672.759 "
         stroke="#000000"
         stroke-width="1px"
         id="polygon24" />
      <path
         fill="none"
         d="M 490,633.333 540,675"
         stroke="#000000"
         stroke-width="1px"
         id="path24" />
    </g>
    <g
       id="g25">
      <polygon
         points="477.348,405.581 480,410 475.581,407.348 "
         stroke="#000000"
         stroke-width="1px"
         id="polygon25" />
      <path
         fill="none"
         d="m 430,360 50,50"
         stroke="#000000"
         stroke-width="1px"
         id="path25" />
    </g>
    <g
       id="g26">
      <polygon
         points="442.315,480.255 438.182,483.333 440.381,478.672 "
         stroke="#000000"
         stroke-width="1px"
         id="polygon26" />
      <path
         fill="none"
         d="m 490,420 -51.818,63.333"
         stroke="#000000"
         stroke-width="1px"
         id="path26" />
    </g>
    <g
       id="g27">
      <polygon
         points="431.25,565 430,570 428.75,565 "
         stroke="#000000"
         stroke-width="1px"
         id="polygon27" />
      <path
         fill="none"
         d="M 430,493.333 V 565"
         stroke="#000000"
         stroke-width="1px"
         id="path27" />
    </g>
    <g
       id="g28">
      <polygon
         points="185.031,413.882 180,415 183.913,411.646 "
         stroke="#000000"
         stroke-width="1px"
         id="polygon28" />
      <path
         fill="none"
         d="M 290,360 180,415"
         stroke="#000000"
         stroke-width="1px"
         id="path28" />
    </g>
    <g
       id="g29">
      <polygon
         points="315.975,485.53 320,488.75 314.934,487.803 "
         stroke="#000000"
         stroke-width="1px"
         id="polygon29" />
      <path
         fill="none"
         d="m 170,420 150,68.75"
         stroke="#000000"
         stroke-width="1px"
         id="path29" />
    </g>
    <g
       id="g30">
      <polygon
         points="351.25,295 350,290 348.75,295 "
         stroke="#000000"
         stroke-width="1px"
         id="polygon30" />
      <path
         fill="none"
         d="M 330,493.333 350,420 m 0,0 v -60 m 0,0 v -65"
         stroke="#000000"
         stroke-width="1px"
         id="path30" />
    </g>
    <g
       id="g31">
      <polygon
         points="484.751,434.495 487.273,430 487.163,435.153 "
         stroke="#000000"
         stroke-width="1px"
         id="polygon31" />
      <path
         fill="none"
         d="m 430,580 40,-86.667 m 0,0 L 487.273,430"
         stroke="#000000"
         stroke-width="1px"
         id="path31" />
    </g>
    <g
       id="g32">
      <polygon
         points="365.088,274.894 360,275.714 364.103,272.596 "
         stroke="#000000"
         stroke-width="1px"
         id="polygon32" />
      <path
         fill="none"
         d="M 560,190 360,275.714"
         stroke="#000000"
         stroke-width="1px"
         id="path32" />
    </g>
    <g
       id="g33">
      <polygon
         points="171.25,405 170,410 168.75,405 "
         stroke="#000000"
         stroke-width="1px"
         id="polygon33" />
      <path
         fill="none"
         d="m 170,360 v 45"
         stroke="#000000"
         stroke-width="1px"
         id="path33" />
    </g>
    <g
       id="g34">
      <polygon
         points="167.5,344.846 167.5,350 165.075,345.452 "
         stroke="#000000"
         stroke-width="1px"
         id="polygon34" />
      <path
         fill="none"
         d="m 90,190 60,90 m 0,0 17.5,70"
         stroke="#000000"
         stroke-width="1px"
         id="path34" />
    </g>
    <g
       id="g35">
      <polygon
         points="563.729,205.139 563.333,200 566.1,204.348 "
         stroke="#000000"
         stroke-width="1px"
         id="polygon35" />
      <path
         fill="none"
         d="M 490,633.333 590,580 m 0,0 V 280 m 0,0 -26.667,-80"
         stroke="#000000"
         stroke-width="1px"
         id="path35" />
    </g>
    <g
       id="g36">
      <polygon
         points="491.25,405 490,410 488.75,405 "
         stroke="#000000"
         stroke-width="1px"
         id="polygon36" />
      <path
         fill="none"
         d="m 350,280 140,80 m 0,0 v 45"
         stroke="#000000"
         stroke-width="1px"
         id="path36" />
    </g>
    <g
       id="g37">
      <polygon
         points="183.882,564.969 185,570 181.646,566.087 "
         stroke="#000000"
         stroke-width="1px"
         id="polygon37" />
      <path
         fill="none"
         d="m 110,420 36.667,73.333 m 0,0 L 185,570"
         stroke="#000000"
         stroke-width="1px"
         id="path37" />
    </g>
    <g
       id="g38">
      <polygon
         points="185.077,354.667 180,355.556 184.061,352.383 "
         stroke="#000000"
         stroke-width="1px"
         id="polygon38" />
      <path
         fill="none"
         d="M 350,280 180,355.556"
         stroke="#000000"
         stroke-width="1px"
         id="path38" />
    </g>
    <g
       id="g39">
      <polygon
         points="301.5,346.75 297.5,350 299.5,345.25 "
         stroke="#000000"
         stroke-width="1px"
         id="polygon39" />
      <path
         fill="none"
         d="m 350,280 -52.5,70"
         stroke="#000000"
         stroke-width="1px"
         id="path39" />
    </g>
    <g
       id="g40">
      <polygon
         points="500.48,406.533 496.667,410 498.4,405.146 "
         stroke="#000000"
         stroke-width="1px"
         id="polygon40" />
      <path
         fill="none"
         d="m 530,360 -33.333,50"
         stroke="#000000"
         stroke-width="1px"
         id="path40" />
    </g>
  </g>
  <g
     id="g42"
     transform="translate(-50,-50)">
    <rect
       x="220"
       y="30"
       width="20"
       height="20"
       fill="#ffffff"
       stroke-width="1px"
       stroke="#000000"
       id="rect41" />
    <text
       x="230"
       y="40"
       text-anchor="middle"
       dominant-baseline="middle"
       font-family="Arial"
       font-size="10px"
       fill="#000000"
       id="text41">N0</text>
  </g>
  <g
     id="g43"
     transform="translate(-50,-50)">
    <rect
       x="445"
       y="125"
       width="20"
       height="20"
       fill="#ffffff"
       stroke-width="1px"
       stroke="#000000"
       id="rect42" />
    <text
       x="455"
       y="135"
       text-anchor="middle"
       dominant-baseline="middle"
       font-family="Arial"
       font-size="10px"
       fill="#000000"
       id="text42">N1</text>
  </g>
  <g
     id="g44"
     transform="translate(-50,-50)">
    <rect
       x="550"
       y="180"
       width="20"
       height="20"
       fill="#ffffff"
       stroke-width="1px"
       stroke="#000000"
       id="rect43" />
    <text
       x="560"
       y="190"
       text-anchor="middle"
       dominant-baseline="middle"
       font-family="Arial"
       font-size="10px"
       fill="#000000"
       id="text43">N2</text>
  </g>
  <g
     id="g45"
     transform="translate(-50,-50)">
    <rect
       x="80"
       y="180"
       width="20"
       height="20"
       fill="#ffffff"
       stroke-width="1px"
       stroke="#000000"
       id="rect44" />
    <text
       x="90"
       y="190"
       text-anchor="middle"
       dominant-baseline="middle"
       font-family="Arial"
       font-size="10px"
       fill="#000000"
       id="text44">N3</text>
  </g>
  <g
     id="g46"
     transform="translate(-50,-50)">
    <rect
       x="280"
       y="350"
       width="20"
       height="20"
       fill="#ffffff"
       stroke-width="1px"
       stroke="#000000"
       id="rect45" />
    <text
       x="290"
       y="360"
       text-anchor="middle"
       dominant-baseline="middle"
       font-family="Arial"
       font-size="10px"
       fill="#000000"
       id="text45">N7</text>
  </g>
  <g
     id="g47"
     transform="translate(-50,-50)">
    <rect
       x="480"
       y="623.33331"
       width="20"
       height="20"
       fill="#ffffff"
       stroke-width="1px"
       stroke="#000000"
       id="rect46" />
    <text
       x="490"
       y="633.33331"
       text-anchor="middle"
       dominant-baseline="middle"
       font-family="Arial"
       font-size="10px"
       fill="#000000"
       id="text46">N8</text>
  </g>
  <g
     id="g48"
     transform="translate(-50,-50)">
    <rect
       x="100"
       y="270"
       width="20"
       height="20"
       fill="#ffffff"
       stroke-width="1px"
       stroke="#000000"
       id="rect47" />
    <text
       x="110"
       y="280"
       text-anchor="middle"
       dominant-baseline="middle"
       font-family="Arial"
       font-size="10px"
       fill="#000000"
       id="text47">N9</text>
  </g>
  <g
     id="g49"
     transform="translate(-50,-50)">
    <rect
       x="320"
       y="483.33334"
       width="20"
       height="20"
       fill="#ffffff"
       stroke-width="1px"
       stroke="#000000"
       id="rect48" />
    <text
       x="330"
       y="493.33334"
       text-anchor="middle"
       dominant-baseline="middle"
       font-family="Arial"
       font-size="10px"
       fill="#000000"
       id="text48">N10</text>
  </g>
  <g
     id="g50"
     transform="translate(-50,-50)">
    <rect
       x="520"
       y="350"
       width="20"
       height="20"
       fill="#ffffff"
       stroke-width="1px"
       stroke="#000000"
       id="rect49" />
    <text
       x="530"
       y="360"
       text-anchor="middle"
       dominant-baseline="middle"
       font-family="Arial"
       font-size="10px"
       fill="#000000"
       id="text49">N11</text>
  </g>
  <g
     id="g51"
     transform="translate(-50,-50)">
    <rect
       x="420"
       y="350"
       width="20"
       height="20"
       fill="#ffffff"
       stroke-width="1px"
       stroke="#000000"
       id="rect50"
       style="stroke:#1c71d8;stroke-width:2" />
    <text
       x="430"
       y="360"
       text-anchor="middle"
       dominant-baseline="middle"
       font-family="Arial"
       font-size="10px"
       fill="#000000"
       id="text50">N12</text>
  </g>
  <g
     id="g52"
     transform="translate(-50,-50)">
    <rect
       x="160"
       y="350"
       width="20"
       height="20"
       fill="#ffffff"
       stroke-width="1px"
       stroke="#000000"
       id="rect51" />
    <text
       x="170"
       y="360"
       text-anchor="middle"
       dominant-baseline="middle"
       font-family="Arial"
       font-size="10px"
       fill="#000000"
       id="text51">N13</text>
  </g>
  <g
     id="g53"
     transform="translate(-50,-50)">
    <rect
       x="60"
       y="483.33334"
       width="20"
       height="20"
       fill="#ffffff"
       stroke-width="1px"
       stroke="#000000"
       id="rect52" />
    <text
       x="70"
       y="493.33334"
       text-anchor="middle"
       dominant-baseline="middle"
       font-family="Arial"
       font-size="10px"
       fill="#000000"
       id="text52">N14</text>
  </g>
  <g
     id="g54"
     transform="translate(-50,-50)">
    <rect
       x="100"
       y="410"
       width="20"
       height="20"
       fill="#ffffff"
       stroke-width="1px"
       stroke="#000000"
       id="rect53" />
    <text
       x="110"
       y="420"
       text-anchor="middle"
       dominant-baseline="middle"
       font-family="Arial"
       font-size="10px"
       fill="#000000"
       id="text53">N15</text>
  </g>
  <g
     id="g55"
     transform="translate(-50,-50)">
    <rect
       x="180"
       y="570"
       width="20"
       height="20"
       fill="#ffffff"
       stroke-width="1px"
       stroke="#000000"
       id="rect54" />
    <text
       x="190"
       y="580"
       text-anchor="middle"
       dominant-baseline="middle"
       font-family="Arial"
       font-size="10px"
       fill="#000000"
       id="text54">N16</text>
  </g>
  <g
     id="g56"
     transform="translate(-50,-50)">
    <rect
       x="420"
       y="483.33334"
       width="20"
       height="20"
       fill="#ffffff"
       stroke-width="1px"
       stroke="#000000"
       id="rect55" />
    <text
       x="430"
       y="493.33334"
       text-anchor="middle"
       dominant-baseline="middle"
       font-family="Arial"
       font-size="10px"
       fill="#000000"
       id="text55">N17</text>
  </g>
  <g
     id="g57"
     transform="translate(-50,-50)">
    <rect
       x="540"
       y="673.33331"
       width="20"
       height="20"
       fill="#ffffff"
       stroke-width="1px"
       stroke="#000000"
       id="rect56" />
    <text
       x="550"
       y="683.33331"
       text-anchor="middle"
       dominant-baseline="middle"
       font-family="Arial"
       font-size="10px"
       fill="#000000"
       id="text56">N18</text>
  </g>
  <g
     id="g58"
     transform="translate(-50,-50)">
    <rect
       x="480"
       y="410"
       width="20"
       height="20"
       fill="#ffffff"
       stroke-width="1px"
       stroke="#000000"
       id="rect57" />
    <text
       x="490"
       y="420"
       text-anchor="middle"
       dominant-baseline="middle"
       font-family="Arial"
       font-size="10px"
       fill="#000000"
       id="text57">N19</text>
  </g>
  <g
     id="g59"
     transform="translate(-50,-50)">
    <rect
       x="420"
       y="570"
       width="20"
       height="20"
       fill="#ffffff"
       stroke-width="1px"
       stroke="#000000"
       id="rect58" />
    <text
       x="430"
       y="580"
       text-anchor="middle"
       dominant-baseline="middle"
       font-family="Arial"
       font-size="10px"
       fill="#000000"
       id="text58">N20</text>
  </g>
  <g
     id="g60"
     transform="translate(-50,-50)">
    <rect
       x="160"
       y="410"
       width="20"
       height="20"
       fill="#ffffff"
       stroke-width="1px"
       stroke="#000000"
       id="rect59" />
    <text
       x="170"
       y="420"
       text-anchor="middle"
       dominant-baseline="middle"
       font-family="Arial"
       font-size="10px"
       fill="#000000"
       id="text59">N21</text>
  </g>
  <g
     id="g61"
     transform="translate(-50,-50)">
    <rect
       x="340"
       y="270"
       width="20"
       height="20"
       fill="#ffffff"
       stroke-width="1px"
       stroke="#000000"
       id="rect60" />
    <text
       x="350"
       y="280"
       text-anchor="middle"
       dominant-baseline="middle"
       font-family="Arial"
       font-size="10px"
       fill="#000000"
       id="text60">N22</text>
  </g>
  <g
     id="path41" />
</svg>
